<svg width="120" height="131" viewBox="0 0 120 131" fill="none" xmlns="http://www.w3.org/2000/svg">
<path d="M30 5C13.3333 5 5 13.3333 5 30V84C5 100.667 13.3333 109 30 109C30 109 30 120.5 30 122.5C30 124.5 30.1111 125.974 31.5 126.5C32.8889 127.026 33.6667 126.5 35 125.5C36.3333 124.5 42 109 42 109H90C106.667 109 115 100.667 115 84V30C115 13.3333 106.667 5 90 5H30Z" fill="white" stroke="black" stroke-width="8" stroke-linejoin="round"/>
<path d="M40 56C49.3888 56 57 48.3888 57 39C57 29.6112 49.3888 22 40 22C30.6112 22 23 29.6112 23 39C23 48.3888 30.6112 56 40 56Z" fill="#111111"/>
<path d="M81 56C90.3888 56 98 48.3888 98 39C98 29.6112 90.3888 22 81 22C71.6112 22 64 29.6112 64 39C64 48.3888 71.6112 56 81 56Z" fill="#2488FF"/>
<path d="M40 96C49.3888 96 57 88.3888 57 79C57 69.6112 49.3888 62 40 62C30.6112 62 23 69.6112 23 79C23 88.3888 30.6112 96 40 96Z" fill="#111111"/>
<path d="M81 96C90.3888 96 98 88.3888 98 79C98 69.6112 90.3888 62 81 62C71.6112 62 64 69.6112 64 79C64 88.3888 71.6112 96 81 96Z" fill="#111111"/>
</svg>
